<svg width="200" height="57" viewBox="0 0 200 57" fill="none" xmlns="http://www.w3.org/2000/svg">
<path fill-rule="evenodd" clip-rule="evenodd" d="M10.1036 17.3088C10.4371 18.5947 11.7377 19.2586 13.059 18.8225C23.8914 15.5109 34.7501 13.2451 45.9551 11.5967C47.2392 11.426 47.9418 10.1074 47.4697 8.7838C46.475 5.99625 45.9721 4.60639 44.9548 1.83357C44.5231 0.657177 43.3557 -0.114816 42.1612 0.0140032C31.2111 1.35464 20.6321 3.33523 10.0297 6.38639C8.64871 6.81655 7.80138 8.35272 8.1495 9.71498C8.9238 12.7477 9.31463 14.2664 10.1036 17.3088" fill="#2C2A29"/>
<path fill-rule="evenodd" clip-rule="evenodd" d="M54.0063 18.8325C53.5857 17.5862 52.4449 16.7535 51.3165 16.9007C34.1743 19.0709 17.4821 23.2805 1.65289 30.2381C0.498321 30.7805 -0.194238 32.2228 0.0482492 33.4944C0.668246 36.7457 0.981459 38.3734 1.61477 41.6312C1.88574 43.0242 3.19554 43.6656 4.48743 43.0394C20.5651 35.7253 37.5562 31.068 54.9864 28.2911C56.0941 28.1107 56.659 26.8497 56.2351 25.5504C55.3566 22.8567 54.9106 21.5133 54.0063 18.8325" fill="#2C2A29"/>
<path fill-rule="evenodd" clip-rule="evenodd" d="M53.9583 36.991C53.5335 35.6609 52.2912 34.7928 51.1113 35.0343C40.4079 37.3406 29.9456 40.1208 19.5815 43.6587C18.2671 44.1381 17.5268 45.5155 17.8726 46.7826C18.6961 49.8011 19.1108 51.3133 19.9452 54.3415C20.337 55.7635 21.9439 56.4914 23.4246 55.9315C33.7854 52.2459 44.25 49.0277 54.9429 46.4472C55.9689 46.1997 56.4736 45.0053 56.092 43.7728C55.2506 41.0543 54.8235 39.6975 53.9583 36.991" fill="#2C2A29"/>
<path fill-rule="evenodd" clip-rule="evenodd" d="M95.3598 34.1252C95.3598 30.4676 93.0181 28.9494 88.4025 28.9494H82.8914V39.3005H88.3332C92.8109 39.3005 95.3598 37.5067 95.3598 34.1252ZM87.2998 10.8007C85.8536 10.8007 84.3381 10.9387 82.8914 11.1458V20.3236H87.5759C91.7087 20.3236 93.6376 18.5984 93.6376 15.631C93.6376 12.802 91.6403 10.8007 87.2998 10.8007ZM106.657 34.6083C106.657 42.682 98.5288 48.0648 89.2977 48.0648H72.3521V3.48612C78.0005 2.658 82.2715 2.10592 87.2999 2.10592C96.5994 2.10592 104.04 6.45309 104.04 14.0442C104.04 18.3914 101.766 21.2898 97.7021 22.877C103.971 24.6708 106.657 28.4664 106.657 34.6083V34.6083Z" fill="#2C2A29"/>
<path fill-rule="evenodd" clip-rule="evenodd" d="M130.931 39.2319V33.2971H128.933C124.249 33.2971 119.978 34.3322 119.978 37.5757C119.978 40.06 121.631 40.9572 125.007 40.9572C127.694 40.9572 129.898 40.1286 130.931 39.2319ZM141.057 26.3271V44.4762C137.337 47.3057 131.344 48.8234 123.216 48.8234C115.983 48.8234 109.99 45.8564 109.99 39.3005C109.99 29.4325 119.565 27.0172 130.931 26.6721C130.724 22.3939 129.002 21.2898 125.213 21.2898C123.216 21.2898 117.911 22.1869 117.223 22.1869C115.569 22.1869 114.261 21.1518 113.158 18.1153L112.331 15.631C116.602 14.0442 120.805 12.94 125.351 12.94C135.271 12.94 141.057 16.6661 141.057 26.3271V26.3271Z" fill="#2C2A29"/>
<path fill-rule="evenodd" clip-rule="evenodd" d="M200 23.4981V48.0648H189.736V27.1552C189.736 23.4981 187.394 21.6348 183.261 21.6348C181.332 21.6348 179.473 22.0489 177.957 22.67C178.508 24.1882 178.784 25.8444 178.784 27.6382V48.0648H168.519V27.1552C168.519 23.4981 166.177 21.6348 162.044 21.6348C160.46 21.6348 158.944 21.8419 157.635 22.1869V48.0648H147.234L147.303 17.3562C151.436 14.4582 157.911 12.8706 163.353 12.8706C167.693 12.8706 171.413 14.3198 174.099 16.6661C177.612 14.3888 182.503 12.8706 186.636 12.8706C194.145 12.8706 200 16.8731 200 23.4981" fill="#2C2A29"/>
</svg>
