<svg width="20" height="19" viewBox="0 0 20 19" fill="none" xmlns="http://www.w3.org/2000/svg">
<path fill-rule="evenodd" clip-rule="evenodd" d="M9.5 18.8794C10.603 18.8794 11.5 17.9824 11.5 16.8794V12.8794H10.5V16.8794C10.5 17.4304 10.052 17.8794 9.5 17.8794H2.5C1.948 17.8794 1.5 17.4304 1.5 16.8794V2.87939C1.5 2.32839 1.948 1.87939 2.5 1.87939H9.5C10.052 1.87939 10.5 2.32839 10.5 2.87939V6.87939H11.5V2.87939C11.5 1.77639 10.603 0.879395 9.5 0.879395H2.5C1.397 0.879395 0.5 1.77639 0.5 2.87939V16.8794C0.5 17.9824 1.397 18.8794 2.5 18.8794H9.5ZM7.5 3.87939H4.5V2.87939H7.5V3.87939ZM6 14.8794C5.725 14.8794 5.5 15.1034 5.5 15.3794C5.5 15.6554 5.725 15.8794 6 15.8794C6.275 15.8794 6.5 15.6554 6.5 15.3794C6.5 15.1034 6.275 14.8794 6 14.8794ZM6 16.8794C5.173 16.8794 4.5 16.2064 4.5 15.3794C4.5 14.5524 5.173 13.8794 6 13.8794C6.827 13.8794 7.5 14.5524 7.5 15.3794C7.5 16.2064 6.827 16.8794 6 16.8794ZM15.8643 16.2432L16.5713 16.9502C20.4693 13.0512 20.4693 6.70719 16.5713 2.80819L15.8643 3.51519C19.3733 7.02419 19.3733 12.7342 15.8643 16.2432ZM15.1572 15.5361L14.4502 14.8291C17.1792 12.0991 17.1792 7.65909 14.4502 4.93009L15.1572 4.22309C18.2762 7.34209 18.2762 12.4171 15.1572 15.5361ZM13.0352 13.4151L13.7422 14.1221C14.8762 12.9891 15.5002 11.4821 15.5002 9.8791C15.5002 8.27709 14.8762 6.77009 13.7422 5.63709L13.0352 6.34409C13.9792 7.28809 14.5002 8.54409 14.5002 9.8791C14.5002 11.2151 13.9792 12.4711 13.0352 13.4151Z" fill="#2C2A29"/>
</svg>
